<svg width="18" height="18" viewBox="0 0 18 18" fill="none" xmlns="http://www.w3.org/2000/svg">
<path d="M8.64363 1.72123C8.6765 1.65483 8.72728 1.59893 8.79022 1.55985C8.85317 1.52077 8.92579 1.50006 8.99988 1.50006C9.07398 1.50006 9.1466 1.52077 9.20955 1.55985C9.27249 1.59893 9.32327 1.65483 9.35614 1.72123L11.0886 5.23048C11.2028 5.46146 11.3712 5.66129 11.5796 5.81282C11.788 5.96436 12.03 6.06307 12.2849 6.10048L16.1594 6.66748C16.2328 6.67812 16.3018 6.70909 16.3585 6.75688C16.4152 6.80468 16.4575 6.86739 16.4804 6.93794C16.5033 7.00848 16.5061 7.08404 16.4883 7.15606C16.4706 7.22808 16.433 7.2937 16.3799 7.34548L13.5779 10.074C13.3931 10.2541 13.2548 10.4763 13.175 10.7217C13.0952 10.9671 13.0762 11.2281 13.1196 11.4825L13.7811 15.3375C13.7941 15.4109 13.7862 15.4864 13.7583 15.5555C13.7303 15.6246 13.6836 15.6844 13.6233 15.7282C13.563 15.772 13.4916 15.798 13.4173 15.8032C13.3429 15.8083 13.2687 15.7925 13.2029 15.7575L9.73938 13.9365C9.51117 13.8167 9.25727 13.754 8.99951 13.754C8.74175 13.754 8.48785 13.8167 8.25963 13.9365L4.79688 15.7575C4.73113 15.7923 4.65693 15.8079 4.58272 15.8027C4.50851 15.7974 4.43727 15.7714 4.37711 15.7276C4.31694 15.6839 4.27026 15.6241 4.24238 15.5551C4.21449 15.4862 4.20653 15.4108 4.21938 15.3375L4.88013 11.4832C4.92378 11.2288 4.90487 10.9675 4.82504 10.722C4.7452 10.4765 4.60684 10.2541 4.42188 10.074L1.61988 7.34623C1.56633 7.29451 1.52838 7.22878 1.51036 7.15654C1.49233 7.0843 1.49496 7.00844 1.51794 6.93762C1.54093 6.8668 1.58334 6.80386 1.64034 6.75597C1.69735 6.70807 1.76666 6.67716 1.84038 6.66673L5.71413 6.10048C5.96933 6.06336 6.21168 5.96477 6.42032 5.81322C6.62897 5.66167 6.79766 5.46168 6.91188 5.23048L8.64363 1.72123Z" stroke="white" stroke-opacity="0.55" stroke-width="1.3125" stroke-linecap="round" stroke-linejoin="round"/>
</svg>
