<svg width="18" height="18" viewBox="0 0 18 18" fill="none" xmlns="http://www.w3.org/2000/svg">
<g clip-path="url(#clip0_4_148)">
<path d="M8.26259 2.1105C8.29473 1.93845 8.38602 1.78306 8.52067 1.67123C8.65531 1.55941 8.82482 1.4982 8.99984 1.4982C9.17487 1.4982 9.34438 1.55941 9.47902 1.67123C9.61366 1.78306 9.70496 1.93845 9.73709 2.1105L10.5253 6.279C10.5813 6.57536 10.7253 6.84796 10.9386 7.06122C11.1519 7.27449 11.4245 7.41851 11.7208 7.4745L15.8893 8.26275C16.0614 8.29488 16.2168 8.38618 16.3286 8.52082C16.4404 8.65546 16.5016 8.82497 16.5016 9C16.5016 9.17502 16.4404 9.34453 16.3286 9.47917C16.2168 9.61382 16.0614 9.70511 15.8893 9.73725L11.7208 10.5255C11.4245 10.5815 11.1519 10.7255 10.9386 10.9388C10.7253 11.152 10.5813 11.4246 10.5253 11.721L9.73709 15.8895C9.70496 16.0615 9.61366 16.2169 9.47902 16.3288C9.34438 16.4406 9.17487 16.5018 8.99984 16.5018C8.82482 16.5018 8.65531 16.4406 8.52067 16.3288C8.38602 16.2169 8.29473 16.0615 8.26259 15.8895L7.47434 11.721C7.41836 11.4246 7.27434 11.152 7.06107 10.9388C6.84781 10.7255 6.5752 10.5815 6.27884 10.5255L2.11034 9.73725C1.9383 9.70511 1.7829 9.61382 1.67108 9.47917C1.55926 9.34453 1.49805 9.17502 1.49805 9C1.49805 8.82497 1.55926 8.65546 1.67108 8.52082C1.7829 8.38618 1.9383 8.29488 2.11034 8.26275L6.27884 7.4745C6.5752 7.41851 6.84781 7.27449 7.06107 7.06122C7.27434 6.84796 7.41836 6.57536 7.47434 6.279L8.26259 2.1105Z" stroke="white" stroke-opacity="0.55" stroke-width="1.3125" stroke-linecap="round" stroke-linejoin="round"/>
<path d="M15 1.5V4.5" stroke="white" stroke-opacity="0.55" stroke-width="1.3125" stroke-linecap="round" stroke-linejoin="round"/>
<path d="M16.5 3H13.5" stroke="white" stroke-opacity="0.55" stroke-width="1.3125" stroke-linecap="round" stroke-linejoin="round"/>
<path d="M3 16.5C3.82843 16.5 4.5 15.8284 4.5 15C4.5 14.1716 3.82843 13.5 3 13.5C2.17157 13.5 1.5 14.1716 1.5 15C1.5 15.8284 2.17157 16.5 3 16.5Z" stroke="white" stroke-opacity="0.55" stroke-width="1.3125" stroke-linecap="round" stroke-linejoin="round"/>
</g>
<defs>
<clipPath id="clip0_4_148">
<rect width="18" height="18" fill="white"/>
</clipPath>
</defs>
</svg>
